<svg xmlns="http://www.w3.org/2000/svg" viewBox="0 0 26 26" id="Window"><path style="line-height:normal;text-indent:0;text-align:start;text-decoration-line:none;text-decoration-style:solid;text-decoration-color:#000;text-transform:none;block-progression:tb;isolation:auto;mix-blend-mode:normal" fill-rule="evenodd" d="M13 0C5.826 0 0 5.826 0 13s5.826 13 13 13 13-5.826 13-13S20.174 0 13 0zm0 1c6.633 0 12 5.367 12 12s-5.367 12-12 12S1 19.633 1 13 6.367 1 13 1zM5 7v12h16V7H5zm1 1h8v1H6V8zm9 0h1v1h-1V8zm2 0h1v1h-1V8zm2 0h1v1h-1V8zM6 10h14v8H6v-8zm8.045.777-2.984 6 .894.446 2.984-6-.894-.446zm-4.399.87L7.293 14l2.353 2.354.708-.708L8.707 14l1.647-1.646-.708-.708zm6.708 0-.708.707L17.293 14l-1.647 1.646.708.708L18.707 14l-2.353-2.354z" color="#000" font-family="sans-serif" font-weight="400" overflow="visible" fill="#eda71a" class="color000000 svgShape"></path></svg>